Coordinates
version=1
nRows=17
nColumns=40
inDegrees=yes

Units are S.I. units (second, meters, Newtons, ...)
Angles are in degrees.

endheader
time	pelvis_tilt	pelvis_list	pelvis_rotation	pelvis_tx	pelvis_ty	pelvis_tz	hip_flexion_r	hip_adduction_r	hip_rotation_r	knee_angle_r	knee_angle_r_beta	ankle_angle_r	subtalar_angle_r	mtp_angle_r	hip_flexion_l	hip_adduction_l	hip_rotation_l	knee_angle_l	knee_angle_l_beta	ankle_angle_l	subtalar_angle_l	mtp_angle_l	lumbar_extension	lumbar_bending	lumbar_rotation	arm_flex_r	arm_add_r	arm_rot_r	elbow_flex_r	pro_sup_r	wrist_flex_r	wrist_dev_r	arm_flex_l	arm_add_l	arm_rot_l	elbow_flex_l	pro_sup_l	wrist_flex_l	wrist_dev_l
      2.25000000	      1.91620310	     -3.06190626	      2.10124382	     -0.17660356	      0.88543274	     -0.99250386	     -6.27139105	      4.48974747	    -16.01777821	    -20.18365234	     -0.35227119	     14.87676217	      4.67669435	     -6.17992449	     21.49477886	      3.75092833	     12.53217577	    -13.33054603	     -0.23266192	     -2.69105745	     -3.10114999	     -9.53245462	    -11.99394029	      3.81432460	      4.54565668	     15.86478979	    -11.32563170	     21.55487143	     21.41118877	     89.95437384	      0.00000000	      0.00000000	      4.13357515	      7.21589055	     -9.92877317	     18.55411125	     89.95437384	      0.00000000	      0.00000000
      2.26000000	      1.70585327	     -3.04031450	      1.92535146	     -0.16970005	      0.88447906	     -0.99313243	     -6.31707328	      4.33314045	    -15.82593731	    -20.58171594	     -0.35921871	     14.60867482	      4.51714755	     -6.07768701	     21.62682371	      3.72968504	     12.33551370	    -13.67657686	     -0.23870130	     -2.80368838	     -2.96398657	     -9.33483469	    -11.81878648	      3.70649078	      4.52682254	     15.60016101	    -11.16751994	     21.50064551	     21.73164598	     89.95437384	      0.00000000	      0.00000000	      3.76331727	      7.18908606	     -9.92112710	     18.65951761	     89.95437384	      0.00000000	      0.00000000
      2.27000000	      1.75139769	     -2.83506232	      1.48746260	     -0.16229491	      0.88408643	     -0.99381890	     -6.75789604	      3.93924934	    -15.26637689	    -20.87489821	     -0.36433570	     14.87147529	      4.63357686	     -6.23095580	     20.98274296	      3.52666409	     12.58873605	    -13.40421354	     -0.23394766	     -4.10978818	     -2.27751837	     -9.09296486	    -11.85141936	      3.41146324	      4.86069167	     15.40175797	    -10.98836877	     21.47093991	     21.58709413	     89.95437384	      0.00000000	      0.00000000	      3.75993753	      7.02749508	    -10.36581798	     18.00972939	     89.95437384	      0.00000000	      0.00000000
      2.28000000	      1.63876110	     -2.77850672	      1.22531434	     -0.15500076	      0.88343513	     -0.99459440	     -6.97160685	      3.72339334	    -14.93515950	    -21.19138425	     -0.36985943	     14.79654476	      4.64182638	     -6.23453729	     20.87325757	      3.46472180	     12.59392101	    -13.92584463	     -0.24305184	     -5.77081590	     -1.56364884	     -8.65476569	    -11.72497109	      3.28024488	      4.93582596	     15.20348710	    -10.79062621	     21.49233215	     21.48764803	     89.95437384	      0.00000000	      0.00000000	      3.54936926	      6.93623418	    -10.52667411	     17.76194317	     89.95437384	      0.00000000	      0.00000000
      2.29000000	      1.49948531	     -2.64594546	      0.96244429	     -0.14762422	      0.88297260	     -0.99548669	     -7.14703054	      3.41738277	    -14.53907005	    -21.54396160	     -0.37601306	     14.69173665	      4.59159083	     -6.20462572	     20.72057722	      3.28364555	     12.17594397	    -14.29597959	     -0.24951191	     -7.28527252	     -1.26360585	     -8.27989509	    -11.56898187	      3.07096187	      5.02499535	     14.98252822	    -10.58651677	     21.52283981	     21.30732140	     89.95437384	      0.00000000	      0.00000000	      3.38393224	      6.82245895	    -10.66030021	     17.43895491	     89.95437384	      0.00000000	      0.00000000
      2.30000000	      1.42180160	     -2.13622981	      0.63894836	     -0.14040339	      0.88299687	     -0.99664310	     -7.22412687	      2.62924228	    -14.22897179	    -22.16867725	     -0.38691641	     14.53925263	      4.33053594	     -6.22533266	     20.26741136	      2.64691890	     11.90039732	    -14.01922954	     -0.24468171	     -7.98360530	     -1.38822123	     -8.13184551	    -11.55667673	      2.44968952	      5.08792842	     14.72948425	    -10.38542391	     21.46921610	     21.29683171	     89.95437384	      0.00000000	      0.00000000	      3.24568994	      6.78412300	    -10.82478376	     17.23988727	     89.95437384	      0.00000000	      0.00000000
      2.31000000	      1.18676930	     -2.05984234	      0.56321405	     -0.13310736	      0.88291382	     -0.99757693	     -7.21276708	      2.43121197	    -13.97389134	    -22.60914143	     -0.39460396	     14.16220796	      4.17899391	     -6.10212429	     20.36126421	      2.57678183	     11.72295805	    -14.47206022	     -0.25258510	     -7.91575735	     -1.28521958	     -7.96187743	    -11.37294028	      2.28075581	      4.99623192	     14.32422151	    -10.26797111	     21.40644569	     21.54073995	     89.95437384	      0.00000000	      0.00000000	      2.92783205	      6.82946499	    -10.79018582	     17.43528327	     89.95437384	      0.00000000	      0.00000000
      2.32000000	      1.12483904	     -1.51726498	      0.32687072	     -0.12565096	      0.88348016	     -0.99876718	     -7.39615710	      1.67930069	    -13.53551689	    -23.04152098	     -0.40215041	     13.75544962	      3.89265327	     -6.00644977	     20.20672647	      2.02716876	     12.14958890	    -15.11896105	     -0.26387565	     -7.13769834	     -0.64239588	     -7.89787106	    -11.31789861	      1.63060146	      4.89632651	     14.29950393	     -9.84456654	     21.44565833	     20.76977800	     89.95437384	      0.00000000	      0.00000000	      3.00498259	      6.75750705	    -11.09591292	     16.69697032	     89.95437384	      0.00000000	      0.00000000
      2.33000000	      1.00484870	     -1.09129657	      0.08672495	     -0.11827509	      0.88413587	     -0.99975479	     -7.35229886	      1.05019456	    -13.13228353	    -23.75244845	     -0.41455843	     13.13755745	      3.49990391	     -5.85500460	     20.02290699	      1.50913420	     11.85272323	    -15.64969417	     -0.27313869	     -6.36284822	     -0.37867173	     -7.80916892	    -11.23881387	      1.06541776	      4.91100207	     14.04600646	     -9.58524479	     21.34444710	     20.50638353	     89.95437384	      0.00000000	      0.00000000	      2.90175256	      6.79874938	    -11.34778587	     16.55621924	     89.95437384	      0.00000000	      0.00000000
      2.34000000	      0.87761899	     -0.53365102	     -0.06297669	     -0.11089611	      0.88512761	     -1.00106449	     -7.22864723	      0.27357186	    -12.86290035	    -24.55744293	     -0.42860823	     12.50990846	      2.58084308	     -5.74520411	     19.52699129	      0.59509643	     10.80761324	    -15.51504894	     -0.27078869	     -5.55702360	      1.23181493	     -7.36481097	    -11.15557137	      0.39791918	      4.85701062	     13.72642240	     -9.25521426	     20.67601495	     20.21902361	     89.95437384	      0.00000000	      0.00000000	      2.83104335	      7.02259973	    -12.75922337	     16.51722498	     89.95437384	      0.00000000	      0.00000000
      2.35000000	      0.66456420	     -0.31383175	     -0.04219394	     -0.10346502	      0.88610989	     -1.00249059	     -7.03542040	     -0.11084799	    -12.69124709	    -25.30236962	     -0.44160966	     11.67454345	      2.28616016	     -5.56791402	     19.34070090	      0.24969781	     10.63567453	    -15.81299211	     -0.27598878	     -4.93309888	      1.16966020	     -7.28181611	    -10.94224111	      0.14530491	      4.58009738	     13.49301444	     -9.02753768	     20.70924356	     19.83633540	     89.95437384	      0.00000000	      0.00000000	      2.81713173	      7.02498812	    -12.94590476	     16.18278701	     89.95437384	      0.00000000	      0.00000000
      2.36000000	      0.41913462	     -0.26237365	      0.05762865	     -0.09579556	      0.88713584	     -1.00372883	     -6.89029258	     -0.23327098	    -12.41491875	    -25.89195066	     -0.45189979	     11.17844671	      2.14967139	     -5.43071548	     19.22825428	      0.13862704	     10.52494397	    -16.20043394	     -0.28275091	     -4.80525241	      1.16866552	     -7.12553620	    -10.69047148	      0.03883277	      4.36548731	     12.96474039	     -8.95573671	     20.65714203	     19.96981388	     89.95437384	      0.00000000	      0.00000000	      2.62335977	      7.10851584	    -12.92822794	     16.38664118	     89.95437384	      0.00000000	      0.00000000
      2.37000000	      0.15232218	      0.36297569	     -0.09285368	     -0.08851118	      0.88834129	     -1.00547404	     -6.14686469	     -1.27755856	    -12.40032294	    -27.49204137	     -0.47982664	      9.62758201	      0.89733307	     -4.88135120	     18.60735481	     -0.77711080	     10.27728616	    -15.56538856	     -0.27166728	     -3.89304928	      2.03548594	     -6.49798515	    -10.39648791	     -0.63809281	      4.19931946	     12.87911860	     -8.63579484	     20.61960248	     19.14390409	     89.95437384	      0.00000000	      0.00000000	      2.80090716	      7.19619873	    -14.19029718	     15.77729745	     89.95437384	      0.00000000	      0.00000000
      2.38000000	     -0.16221244	      0.43803360	     -0.04456256	     -0.08112758	      0.88939710	     -1.00701077	     -5.53741430	     -1.57168305	    -12.23621960	    -28.66910925	     -0.50037035	      8.04801237	      0.73736262	     -4.57966848	     18.24582884	     -0.97834941	     10.34475874	    -15.30315959	     -0.26709052	     -3.35534934	      1.78981297	     -6.34609611	    -10.05242648	     -0.71255366	      3.93453907	     12.63759774	     -8.49498957	     20.71798438	     18.72056492	     89.95437384	      0.00000000	      0.00000000	      2.81302085	      7.23331006	    -14.46857415	     15.57768036	     89.95437384	      0.00000000	      0.00000000
      2.39000000	     -0.54129467	      0.65977480	     -0.03246880	     -0.07381163	      0.89030788	     -1.00878286	     -4.67762671	     -2.10060535	    -12.07291409	    -30.15920819	     -0.52637748	      6.45237479	      0.25750135	     -4.14875466	     17.87138376	     -1.34349630	     10.67945386	    -14.84324067	     -0.25906342	     -3.19186313	      1.49978820	     -6.06305901	     -9.62656512	     -0.92355470	      3.70206138	     12.32258244	     -8.44414654	     20.89012871	     18.46559915	     89.95437384	      0.00000000	      0.00000000	      2.84443505	      7.28307425	    -14.91186495	     15.41141078	     89.95437384	      0.00000000	      0.00000000
      2.40000000	     -0.70746515	      0.47040973	      0.07142357	     -0.06661871	      0.89141493	     -1.01037197	     -4.01619843	     -2.12171888	    -11.92166392	    -31.61926555	     -0.55186029	      5.34945632	      0.04041749	     -3.94000489	     17.34297596	     -1.25697553	     10.92997777	    -14.49231503	     -0.25293861	     -2.82342897	      1.23756226	     -5.96637249	     -9.48035962	     -0.68235885	      3.38969344	     12.11361088	     -8.40960112	     20.98794069	     18.21464745	     89.95437384	      0.00000000	      0.00000000	      2.91547052	      7.31132183	    -15.09625556	     15.32817601	     89.95437384	      0.00000000	      0.00000000
      2.41000000	     -1.17877164	      0.62848662	     -0.20468699	     -0.05948899	      0.89189263	     -1.01167278	     -2.64615299	     -2.59756904	    -11.34322280	    -33.63532654	     -0.58704719	      3.57324296	     -0.93078037	     -2.41013288	     17.15017121	     -1.38976477	     11.89971510	    -14.16705702	     -0.24726179	     -2.78705113	     -0.02419459	     -5.28652223	     -8.92380504	     -0.86016647	      3.51890463	     11.79733641	     -8.53366690	     21.70350530	     18.03742092	     89.95437384	      0.00000000	      0.00000000	      2.96493066	      7.52981159	    -16.53865008	     15.37678677	     89.95437384	      0.00000000	      0.00000000
